<svg xmlns="http://www.w3.org/2000/svg" viewBox="0 0 64 64" width="64" height="64">
  <!-- Sun icon representing solar -->
  <circle cx="32" cy="20" r="8" fill="#FDB813" stroke="#F57C00" stroke-width="2"/>
  <g stroke="#F57C00" stroke-width="2" stroke-linecap="round">
    <line x1="32" y1="6" x2="32" y2="10"/>
    <line x1="32" y1="30" x2="32" y2="34"/>
    <line x1="18" y1="20" x2="22" y2="20"/>
    <line x1="42" y1="20" x2="46" y2="20"/>
    <line x1="22" y1="10" x2="25" y2="13"/>
    <line x1="39" y1="27" x2="42" y2="30"/>
    <line x1="22" y1="30" x2="25" y2="27"/>
    <line x1="39" y1="13" x2="42" y2="10"/>
  </g>

  <!-- Solar panel array -->
  <g fill="#1976D2" stroke="#0D47A1" stroke-width="1.5">
    <rect x="10" y="38" width="12" height="18" rx="1"/>
    <rect x="26" y="38" width="12" height="18" rx="1"/>
    <rect x="42" y="38" width="12" height="18" rx="1"/>
  </g>

  <!-- Panel grid lines -->
  <g stroke="#0D47A1" stroke-width="0.5">
    <line x1="10" y1="44" x2="22" y2="44"/>
    <line x1="10" y1="50" x2="22" y2="50"/>
    <line x1="16" y1="38" x2="16" y2="56"/>

    <line x1="26" y1="44" x2="38" y2="44"/>
    <line x1="26" y1="50" x2="38" y2="50"/>
    <line x1="32" y1="38" x2="32" y2="56"/>

    <line x1="42" y1="44" x2="54" y2="44"/>
    <line x1="42" y1="50" x2="54" y2="50"/>
    <line x1="48" y1="38" x2="48" y2="56"/>
  </g>

  <!-- FreePVC text would go here in a more detailed version -->
</svg>
